<svg width="53" height="60" viewBox="0 0 53 60" fill="none" xmlns="http://www.w3.org/2000/svg">
<g id="dextools 1" clip-path="url(#clip0_1198_594)">
<path id="Vector" fill-rule="evenodd" clip-rule="evenodd" d="M19.383 3.42424C15.8126 5.28412 12.8916 6.85795 12.8922 6.92196C12.8938 7.08717 21.4612 11.426 21.7653 11.4155C21.9036 11.4108 22.9071 10.9489 23.9951 10.3891L25.9736 9.37149L28.1343 10.4822L30.295 11.593L33.8335 10.003C39.1653 7.60715 39.7191 7.3446 39.6323 7.2564C39.5171 7.13936 37.6047 6.11199 32.4162 3.38042C29.9086 2.06022 27.4749 0.765807 27.0076 0.503883C26.5405 0.241959 26.0945 0.031258 26.0166 0.0353365C25.9387 0.0394151 22.9534 1.56444 19.383 3.42424ZM3.72342 11.5333L0.00670537 13.4531V21.8788C0.00670537 26.513 0.0555094 30.3044 0.115374 30.3044C0.175031 30.3044 2.00366 29.5117 4.1789 28.5429L8.13389 26.7814V17.9002L10.0666 18.9531C11.5558 19.7638 13.046 20.5728 14.5371 21.3801L17.0749 22.7542L18.2042 22.2435C18.9124 21.9228 19.6192 21.5989 20.3246 21.2719C20.8697 21.018 22.2077 20.4154 23.2979 19.9324C24.3881 19.4492 25.3973 18.9633 25.5404 18.8525C25.7305 18.7054 23.4125 17.4245 16.9669 14.1145C12.1082 11.6195 7.97711 9.58606 7.78659 9.59581C7.59608 9.60556 5.76765 10.4773 3.72342 11.5333ZM40.3021 12.0724C37.7708 13.2152 35.6979 14.1958 35.6956 14.2518C35.6934 14.3076 37.073 15.1279 38.7617 16.0744C40.4502 17.0211 41.8318 17.8463 41.8318 17.9085C41.8318 17.9705 40.3376 18.6944 38.5116 19.5176C36.6853 20.3406 32.0693 22.4252 28.2535 24.1501L15.4681 29.9293C12.252 31.3832 9.35295 32.6937 9.02591 32.8418C2.45672 35.8156 0.651112 36.6408 0.403152 36.7824C0.153809 36.925 0.0973316 37.7535 0.0529517 41.9118L0 46.8712L3.32365 48.5647L6.64723 50.2581L11.2559 48.1782C13.7907 47.0344 15.8646 46.0385 15.8646 45.9652C15.8646 45.892 15.3962 45.5868 14.8239 45.2867C14.2514 44.9865 13.0696 44.3221 12.1974 43.8099C11.3253 43.2976 10.4557 42.8276 10.2647 42.7652C10.0739 42.7031 9.92049 42.5943 9.9236 42.5234C9.92678 42.4527 11.9562 41.4887 14.4332 40.3811C19.2443 38.23 22.9261 36.5721 30.8304 32.9976C34.3649 31.3996 37.8999 29.8025 41.4353 28.2064C44.5425 26.8039 48.1551 25.166 49.4634 24.5665L51.842 23.4765L51.8949 18.4606L51.9481 13.4448L48.5771 11.7146C46.7229 10.763 45.1381 9.9868 45.055 9.98963C44.972 9.99226 42.8332 10.9294 40.3021 12.0724ZM50.9389 30.1681C50.4421 30.4107 49.4609 30.865 48.7585 31.1776C48.056 31.4901 46.7229 32.0916 45.7962 32.5144L44.1113 33.2829L44.0729 37.6865C44.0517 40.1084 43.9625 42.0792 43.8747 42.0664C43.6753 42.0367 40.5174 40.4172 37.343 38.7163C35.0519 37.4888 34.908 37.44 34.3697 37.7066C34.0584 37.8608 32.1981 38.6951 30.2358 39.5609C28.2733 40.4266 26.6037 41.1914 26.5252 41.2607C26.4469 41.3298 30.3965 43.4705 35.3023 46.018L44.2218 50.6497L48.032 48.6787C50.1274 47.5948 51.9092 46.6061 51.9913 46.4817C52.176 46.2021 52.1602 29.6886 51.9753 29.7109C51.9021 29.7197 51.4356 29.9255 50.9389 30.1681ZM29.8393 49.5508C29.1784 49.835 28.5176 50.1195 27.8571 50.4045C25.8623 51.2675 26.2533 51.2961 23.8801 50.1147C22.2995 49.3279 21.6182 49.0851 21.3225 49.203C21.1006 49.2913 19.1915 50.1502 17.0797 51.1116C14.968 52.0729 13.1669 52.8595 13.0773 52.8595C12.1913 52.8595 13.6643 53.7395 19.3482 56.6067L26.014 59.9688L28.8186 58.5842C30.3612 57.8226 33.4725 56.2976 35.7328 55.1953C37.993 54.0927 39.8143 53.162 39.7802 53.1269C39.7458 53.092 37.852 52.1195 35.5715 50.9659L31.4251 48.8687L29.8393 49.5508Z" fill="#05A3C9"/>
</g>
<defs>
<clipPath id="clip0_1198_594">
<rect width="52.176" height="60" fill="white"/>
</clipPath>
</defs>
</svg>
