<svg width="90" height="90" viewBox="0 0 90 90" fill="none" xmlns="http://www.w3.org/2000/svg">
<g clip-path="url(#clip0_1198_596)">
<path d="M37.4501 22.8869C36.5766 22.7585 36.5351 22.7156 36.951 22.6728C37.7412 22.5443 39.5713 22.7156 40.8607 23.0154C43.8553 23.7435 46.5588 25.6279 49.4287 28.9256L50.1774 29.825L51.2588 29.6537C55.8755 28.8828 60.6171 29.4824 64.5683 31.3668C65.6497 31.8807 67.355 32.9086 67.563 33.1656C67.6462 33.2512 67.7709 33.808 67.8541 34.3647C68.1453 36.3776 68.0205 37.8766 67.3966 39.033C67.0639 39.6754 67.0639 39.8467 67.2718 40.4034C67.4382 40.8317 67.9373 41.1315 68.3948 41.1315C69.393 41.1315 70.4329 39.5041 70.932 37.2342L71.1399 36.3348L71.5143 36.7631C73.6355 39.2043 75.2992 42.5877 75.5487 44.986L75.6319 45.6284L75.2576 45.0717C74.6337 44.0866 74.0514 43.4442 73.2611 42.8875C71.847 41.9024 70.3497 41.6026 66.3984 41.3885C62.8215 41.1743 60.7834 40.8746 58.787 40.1893C55.3764 39.033 53.6295 37.534 49.5951 32.0092C47.8066 29.5681 46.6836 28.2404 45.5606 27.1269C43.1067 24.6857 40.6527 23.4009 37.4501 22.8869Z" fill="#FF007A"/>
<path d="M68.4377 28.3262C68.5209 26.6987 68.7289 25.628 69.1864 24.643C69.3527 24.2575 69.5191 23.9149 69.5607 23.9149C69.6023 23.9149 69.5191 24.2147 69.3943 24.5573C69.0616 25.4995 69.02 26.8272 69.228 28.3262C69.5191 30.2534 69.6439 30.5104 71.6403 32.6089C72.5554 33.594 73.6368 34.836 74.0527 35.3499L74.7597 36.2921L74.0527 35.6069C73.1792 34.7503 71.1828 33.1229 70.7253 32.9087C70.4341 32.7374 70.3925 32.7374 70.1846 32.9516C70.0182 33.1229 69.9766 33.3798 69.9766 34.6218C69.935 36.5491 69.6855 37.7483 69.0616 38.9903C68.7289 39.6327 68.6873 39.5042 68.9784 38.7761C69.1864 38.2194 69.228 37.9624 69.228 36.1208C69.228 32.3948 68.812 31.4954 66.2749 29.9964C65.651 29.611 64.5696 29.0542 63.9457 28.7544C63.2802 28.4546 62.7811 28.1977 62.8227 28.1977C62.9059 28.112 65.3599 28.8401 66.3165 29.2684C67.7722 29.868 68.0218 29.9108 68.1881 29.868C68.3129 29.7395 68.3961 29.3969 68.4377 28.3262Z" fill="#FF007A"/>
<path d="M39.1569 34.7074C37.41 32.2234 36.287 28.3689 36.5366 25.4995L36.6198 24.6001L37.0357 24.6858C37.7843 24.8142 39.0737 25.3282 39.6976 25.7136C41.3613 26.7415 42.1099 28.1548 42.817 31.6667C43.025 32.6945 43.3161 33.8937 43.4409 34.2791C43.6489 34.9216 44.4391 36.4205 45.1046 37.3627C45.5621 38.048 45.271 38.3906 44.2312 38.3049C42.6507 38.1336 40.5294 36.6347 39.1569 34.7074Z" fill="#FF007A"/>
<path d="M66.3167 53.3375C58.0814 49.9113 55.1699 46.9562 55.1699 41.9453C55.1699 41.2173 55.2115 40.6177 55.2115 40.6177C55.2531 40.6177 55.5443 40.8746 55.9186 41.1744C57.5823 42.5449 59.4539 43.1445 64.653 43.9154C67.6892 44.3865 69.4361 44.7291 71.0166 45.2859C76.0493 46.999 79.1687 50.5109 79.9174 55.2647C80.1254 56.6352 80.0006 59.2477 79.6678 60.6182C79.3767 61.6889 78.5448 63.659 78.3369 63.7018C78.2953 63.7018 78.2121 63.4876 78.2121 63.145C78.1289 61.3463 77.2555 59.6332 75.7997 58.3055C74.0529 56.7637 71.8069 55.6074 66.3167 53.3375Z" fill="#FF007A"/>
<path d="M60.4931 54.7507C60.4099 54.1083 60.2019 53.2946 60.0772 52.952L59.8692 52.3096L60.2435 52.7807C60.7842 53.4231 61.2002 54.194 61.5745 55.2647C61.8656 56.0784 61.8656 56.3354 61.8656 57.663C61.8656 58.9479 61.8241 59.2476 61.5745 59.9757C61.1586 61.1321 60.6595 61.9458 59.8276 62.8452C58.3303 64.4298 56.3754 65.2863 53.5888 65.6718C53.0897 65.7146 51.6755 65.8431 50.4277 65.9288C47.3083 66.1001 45.2287 66.4427 43.357 67.1279C43.1075 67.2136 42.8579 67.2992 42.8163 67.2564C42.7331 67.1708 44.0225 66.3999 45.0623 65.8859C46.5181 65.1579 48.0154 64.7724 51.3012 64.1728C52.9233 63.9159 54.587 63.5732 55.0029 63.4019C59.1205 62.0743 61.1586 58.7765 60.4931 54.7507Z" fill="#FF007A"/>
<path d="M64.279 61.646C63.1976 59.2048 62.948 56.8922 63.5303 54.7079C63.6135 54.4938 63.6967 54.2797 63.7799 54.2797C63.8631 54.2797 64.1126 54.4081 64.3622 54.5795C64.8613 54.9221 65.9011 55.5217 68.563 57.0206C71.932 58.9051 73.8452 60.3612 75.1762 62.0315C76.3408 63.4876 77.0478 65.1579 77.3806 67.2136C77.5885 68.37 77.4638 71.1538 77.1726 72.3101C76.2576 75.9505 74.178 78.8627 71.1417 80.533C70.6842 80.79 70.3099 80.9613 70.2683 80.9613C70.2267 80.9613 70.3931 80.533 70.6426 80.0191C71.6408 77.8349 71.7656 75.7363 71.0169 73.3808C70.5594 71.9247 69.6028 70.1687 67.6896 67.2136C65.402 63.7874 64.8613 62.888 64.279 61.646Z" fill="#FF007A"/>
<path d="M33.2914 74.7513C36.3692 72.096 40.1542 70.2116 43.6479 69.612C45.1452 69.355 47.6408 69.4407 49.0133 69.8261C51.2177 70.4257 53.2142 71.7105 54.254 73.2952C55.2522 74.837 55.7097 76.1646 56.1672 79.1197C56.3336 80.2761 56.5416 81.4752 56.5831 81.7322C56.9159 83.274 57.5814 84.4732 58.4132 85.1156C59.7026 86.1006 61.9486 86.1435 64.153 85.2869C64.5273 85.1584 64.86 85.0299 64.86 85.0728C64.9432 85.1584 63.8202 85.9293 63.0716 86.3148C62.0318 86.8715 61.1999 87.0428 60.0769 87.0428C58.0805 87.0428 56.3752 85.9721 55.0026 83.8308C54.7115 83.4025 54.1292 82.1605 53.6301 81.0041C52.1744 77.5351 51.4257 76.5072 49.7204 75.3509C48.2231 74.3658 46.3098 74.1517 44.8541 74.8798C42.9408 75.822 42.4417 78.3488 43.7727 79.8906C44.3134 80.533 45.3116 81.047 46.1435 81.1754C47.6824 81.3896 49.0133 80.1476 49.0133 78.563C49.0133 77.5351 48.639 76.9355 47.6408 76.4644C46.3098 75.8648 44.8541 76.5501 44.8957 77.8777C44.8957 78.4345 45.1452 78.7771 45.6859 79.0341C46.0187 79.2054 46.0187 79.2054 45.7691 79.1625C44.5629 78.9056 44.2718 77.3638 45.2284 76.3787C46.393 75.1796 48.847 75.6935 49.6788 77.3638C50.0116 78.049 50.0531 79.4195 49.762 80.2761C49.0549 82.1605 47.0585 83.1455 45.0205 82.5888C43.6479 82.2033 43.0656 81.8179 41.4019 80.0619C38.4905 76.9783 37.3675 76.3787 33.2082 75.7363L32.418 75.6078L33.2914 74.7513Z" fill="#FF007A"/>
<path fill-rule="evenodd" clip-rule="evenodd" d="M11.414 5.84159C21.1051 17.9618 36.0367 36.806 36.7854 37.8338C37.4093 38.6904 37.1597 39.5041 36.1199 40.1037C35.5376 40.4463 34.3314 40.789 33.7492 40.789C33.0837 40.789 32.2934 40.4463 31.7527 39.8896C31.3784 39.5041 29.7563 37.063 26.0962 31.1956C23.3095 26.6987 20.9387 22.9727 20.8971 22.9298C20.7307 22.8442 20.7307 22.8442 25.805 32.1806C29.0076 38.048 30.0474 40.1465 30.0474 40.4035C30.0474 40.9603 29.8811 41.2601 29.2156 42.031C28.0926 43.3158 27.5935 44.7719 27.2191 47.8127C26.8032 51.1961 25.6802 53.5944 22.4776 57.6631C20.606 60.0614 20.3148 60.4897 19.8573 61.4747C19.275 62.6739 19.1086 63.3591 19.0254 64.9009C18.9423 66.5284 19.1086 67.5562 19.5661 69.098C19.9821 70.4685 20.4396 71.3679 21.5626 73.1238C22.5192 74.6656 23.1015 75.822 23.1015 76.2503C23.1015 76.5929 23.1847 76.5929 24.682 76.2503C28.259 75.3937 31.212 73.9376 32.8341 72.1388C33.8323 71.0253 34.0819 70.4257 34.0819 68.8839C34.0819 67.8989 34.0403 67.6847 33.7907 67.0851C33.3748 66.1429 32.5846 65.372 30.8793 64.1729C28.6333 62.5882 27.6767 61.3034 27.4271 59.5903C27.2191 58.1342 27.4687 57.1491 28.7165 54.451C30.0058 51.6672 30.3386 50.5108 30.5465 47.6842C30.6713 45.8854 30.8793 45.1574 31.3784 44.6006C31.9191 44.001 32.3766 43.7869 33.666 43.6156C35.7872 43.3158 37.1597 42.759 38.2411 41.6883C39.1978 40.789 39.6137 39.8896 39.6553 38.5619L39.6969 37.5769L39.1562 36.9773C37.2013 34.6646 10.1247 4 9.9999 4C9.9583 4 10.6238 4.81373 11.414 5.84159ZM24.1829 66.7425C24.6404 65.9288 24.3909 64.9009 23.6422 64.387C22.9351 63.9159 21.8537 64.13 21.8537 64.7724C21.8537 64.9438 21.9369 65.1151 22.1865 65.2007C22.5608 65.4149 22.6024 65.629 22.3112 66.1001C22.0201 66.5712 22.0201 66.9995 22.3944 67.2993C22.9767 67.7704 23.767 67.5134 24.1829 66.7425Z" fill="#FF007A"/>
<path fill-rule="evenodd" clip-rule="evenodd" d="M41.028 44.2152C40.0298 44.515 39.0732 45.6285 38.7821 46.742C38.6157 47.4272 38.6989 48.6692 38.99 49.0547C39.4475 49.6543 39.8635 49.8256 41.028 49.8256C43.3156 49.8256 45.2705 48.7977 45.4784 47.5557C45.6864 46.5279 44.813 45.1145 43.6068 44.4721C42.9829 44.1295 41.6935 44.001 41.028 44.2152ZM43.69 46.3565C44.0227 45.8426 43.8979 45.2859 43.274 44.9004C42.151 44.1723 40.4458 44.7719 40.4458 45.8854C40.4458 46.4422 41.3192 47.0418 42.151 47.0418C42.6917 47.0418 43.4404 46.6992 43.69 46.3565Z" fill="#FF007A"/>
</g>
<defs>
<clipPath id="clip0_1198_596">
<rect width="70" height="83" fill="white" transform="translate(10 4)"/>
</clipPath>
</defs>
</svg>
