<svg width="145" height="16" viewBox="0 0 145 16" fill="none" xmlns="http://www.w3.org/2000/svg">
<path d="M3.29 16C2.73267 16 2.21933 15.8607 1.75 15.582C1.29533 15.3033 0.928667 14.9367 0.65 14.482C0.371333 14.0127 0.232 13.4993 0.232 12.942V3.218C0.232 2.66067 0.371333 2.15467 0.65 1.7C0.928667 1.23067 1.29533 0.856666 1.75 0.577999C2.21933 0.299333 2.73267 0.159999 3.29 0.159999H12.992C13.5493 0.159999 14.0627 0.299333 14.532 0.577999C15.0013 0.856666 15.3753 1.23067 15.654 1.7C15.9327 2.15467 16.072 2.66067 16.072 3.218V4.45H13.146V3.35C13.146 3.27667 13.1167 3.218 13.058 3.174C12.9993 3.11533 12.9333 3.086 12.86 3.086H3.4C3.32667 3.086 3.26067 3.11533 3.202 3.174C3.158 3.218 3.136 3.27667 3.136 3.35V12.81C3.136 12.8833 3.158 12.9493 3.202 13.008C3.26067 13.052 3.32667 13.074 3.4 13.074H12.86C12.9333 13.074 12.9993 13.052 13.058 13.008C13.1167 12.9493 13.146 12.8833 13.146 12.81V9.95H9.56V7.024H16.072V12.942C16.072 13.4993 15.9327 14.0127 15.654 14.482C15.3753 14.9367 15.0013 15.3033 14.532 15.582C14.0627 15.8607 13.5493 16 12.992 16H3.29ZM20.3857 16V0.159999H23.2677V16H20.3857ZM30.6568 16C30.0995 16 29.5861 15.8607 29.1168 15.582C28.6621 15.3033 28.2955 14.9367 28.0168 14.482C27.7381 14.0127 27.5988 13.4993 27.5988 12.942V3.218C27.5988 2.66067 27.7381 2.15467 28.0168 1.7C28.2955 1.23067 28.6621 0.856666 29.1168 0.577999C29.5861 0.299333 30.0995 0.159999 30.6568 0.159999H40.3588C40.9161 0.159999 41.4295 0.299333 41.8988 0.577999C42.3681 0.856666 42.7421 1.23067 43.0208 1.7C43.2995 2.15467 43.4388 2.66067 43.4388 3.218V4.45H40.5128V3.35C40.5128 3.27667 40.4835 3.218 40.4248 3.174C40.3661 3.11533 40.3001 3.086 40.2268 3.086H30.7668C30.6935 3.086 30.6275 3.11533 30.5688 3.174C30.5248 3.218 30.5028 3.27667 30.5028 3.35V12.81C30.5028 12.8833 30.5248 12.9493 30.5688 13.008C30.6275 13.052 30.6935 13.074 30.7668 13.074H40.2268C40.3001 13.074 40.3661 13.052 40.4248 13.008C40.4835 12.9493 40.5128 12.8833 40.5128 12.81V9.95H36.9268V7.024H43.4388V12.942C43.4388 13.4993 43.2995 14.0127 43.0208 14.482C42.7421 14.9367 42.3681 15.3033 41.8988 15.582C41.4295 15.8607 40.9161 16 40.3588 16H30.6568ZM48.1045 16V3.218C48.1045 2.66067 48.2438 2.15467 48.5225 1.7C48.8012 1.23067 49.1678 0.856666 49.6225 0.577999C50.0918 0.299333 50.6052 0.159999 51.1625 0.159999H60.8645C61.4218 0.159999 61.9352 0.299333 62.4045 0.577999C62.8738 0.856666 63.2478 1.23067 63.5265 1.7C63.8052 2.15467 63.9445 2.66067 63.9445 3.218V16H61.0185V10.676H51.0085V16H48.1045ZM51.0085 7.772H61.0185V3.35C61.0185 3.27667 60.9892 3.218 60.9305 3.174C60.8718 3.11533 60.8058 3.086 60.7325 3.086H51.2725C51.1992 3.086 51.1332 3.11533 51.0745 3.174C51.0305 3.218 51.0085 3.27667 51.0085 3.35V7.772ZM68.7171 16V0.159999H80.8611C81.4185 0.159999 81.9245 0.299333 82.3791 0.577999C82.8485 0.856666 83.2225 1.23067 83.5011 1.7C83.7798 2.15467 83.9191 2.66067 83.9191 3.218V6.32C83.9191 6.51067 83.9045 6.694 83.8751 6.87C83.8458 7.046 83.7945 7.21467 83.7211 7.376C83.9705 7.71333 84.1685 8.06533 84.3151 8.432C84.4765 8.79867 84.5571 9.16533 84.5571 9.532V12.942C84.5571 13.4993 84.4178 14.0127 84.1391 14.482C83.8605 14.9367 83.4865 15.3033 83.0171 15.582C82.5478 15.8607 82.0345 16 81.4771 16H68.7171ZM71.8851 13.074H81.3451C81.4185 13.074 81.4845 13.052 81.5431 13.008C81.6018 12.9493 81.6311 12.8833 81.6311 12.81V9.664C81.6311 9.59067 81.6018 9.532 81.5431 9.488C81.4845 9.42933 81.4185 9.4 81.3451 9.4H71.8851C71.8118 9.4 71.7458 9.42933 71.6871 9.488C71.6431 9.532 71.6211 9.59067 71.6211 9.664V12.81C71.6211 12.8833 71.6431 12.9493 71.6871 13.008C71.7458 13.052 71.8118 13.074 71.8851 13.074ZM71.8851 6.474H80.7291C80.8025 6.474 80.8611 6.452 80.9051 6.408C80.9491 6.34933 80.9711 6.28333 80.9711 6.21V3.35C80.9711 3.27667 80.9491 3.218 80.9051 3.174C80.8611 3.11533 80.8025 3.086 80.7291 3.086H71.8851C71.8118 3.086 71.7458 3.11533 71.6871 3.174C71.6431 3.218 71.6211 3.27667 71.6211 3.35V6.21C71.6211 6.28333 71.6431 6.34933 71.6871 6.408C71.7458 6.452 71.8118 6.474 71.8851 6.474ZM92.1698 16C91.6125 16 91.0992 15.8607 90.6298 15.582C90.1752 15.3033 89.8085 14.9367 89.5298 14.482C89.2512 14.0127 89.1118 13.4993 89.1118 12.942V3.218C89.1118 2.66067 89.2512 2.15467 89.5298 1.7C89.8085 1.23067 90.1752 0.856666 90.6298 0.577999C91.0992 0.299333 91.6125 0.159999 92.1698 0.159999H101.894C102.451 0.159999 102.957 0.299333 103.412 0.577999C103.881 0.856666 104.255 1.23067 104.534 1.7C104.812 2.15467 104.952 2.66067 104.952 3.218V12.942C104.952 13.4993 104.812 14.0127 104.534 14.482C104.255 14.9367 103.881 15.3033 103.412 15.582C102.957 15.8607 102.451 16 101.894 16H92.1698ZM92.2798 13.074H101.74C101.813 13.074 101.879 13.052 101.938 13.008C101.996 12.9493 102.026 12.8833 102.026 12.81V3.35C102.026 3.27667 101.996 3.218 101.938 3.174C101.879 3.11533 101.813 3.086 101.74 3.086H92.2798C92.2065 3.086 92.1405 3.11533 92.0818 3.174C92.0378 3.218 92.0158 3.27667 92.0158 3.35V12.81C92.0158 12.8833 92.0378 12.9493 92.0818 13.008C92.1405 13.052 92.2065 13.074 92.2798 13.074ZM115.251 16V3.086H108.783V0.159999H124.623V3.086H118.177V16H115.251ZM131.46 16C130.903 16 130.389 15.8607 129.92 15.582C129.465 15.3033 129.099 14.9367 128.82 14.482C128.541 14.0127 128.402 13.4993 128.402 12.942V11.732H131.306V12.81C131.306 12.8833 131.328 12.9493 131.372 13.008C131.431 13.052 131.497 13.074 131.57 13.074H141.052C141.125 13.074 141.184 13.052 141.228 13.008C141.287 12.9493 141.316 12.8833 141.316 12.81V9.796C141.316 9.72267 141.287 9.664 141.228 9.62C141.184 9.576 141.125 9.554 141.052 9.554H131.46C130.903 9.554 130.389 9.41467 129.92 9.136C129.465 8.85733 129.099 8.49067 128.82 8.036C128.541 7.56667 128.402 7.046 128.402 6.474V3.218C128.402 2.66067 128.541 2.15467 128.82 1.7C129.099 1.23067 129.465 0.856666 129.92 0.577999C130.389 0.299333 130.903 0.159999 131.46 0.159999H141.184C141.741 0.159999 142.247 0.299333 142.702 0.577999C143.171 0.856666 143.545 1.23067 143.824 1.7C144.103 2.15467 144.242 2.66067 144.242 3.218V4.428H141.316V3.35C141.316 3.27667 141.287 3.218 141.228 3.174C141.184 3.11533 141.125 3.086 141.052 3.086H131.57C131.497 3.086 131.431 3.11533 131.372 3.174C131.328 3.218 131.306 3.27667 131.306 3.35V6.364C131.306 6.43733 131.328 6.496 131.372 6.54C131.431 6.584 131.497 6.606 131.57 6.606H141.184C141.741 6.606 142.247 6.74533 142.702 7.024C143.171 7.30267 143.545 7.67667 143.824 8.146C144.103 8.60067 144.242 9.114 144.242 9.686V12.942C144.242 13.4993 144.103 14.0127 143.824 14.482C143.545 14.9367 143.171 15.3033 142.702 15.582C142.247 15.8607 141.741 16 141.184 16H131.46Z" fill="#5AE3EA"/>
</svg>
