<?xml version="1.0" encoding="UTF-8"?>
<!-- Generator: visioncortex VTracer 0.6.3 -->
<svg version="1.1" xmlns="http://www.w3.org/2000/svg" width="420" height="60">
<path d="M0 0 C12 0 12 0 15.36 3.28 C16.2 4.66 17 6.07 17.75 7.5 C18.38 8.57 18.38 8.57 19.03 9.67 C20.06 11.42 21.04 13.21 22 15 C22.33 10.05 22.66 5.1 23 0 C26.3 0 29.6 0 33 0 C33 11.55 33 23.1 33 35 C23 35 23 35 20.7 33.16 C20.22 32.33 19.74 31.49 19.25 30.62 C18.71 29.72 18.16 28.82 17.61 27.89 C17.08 26.94 16.55 25.98 16 25 C14.86 23.12 13.71 21.25 12.56 19.38 C11.29 17.21 11.29 17.21 10 15 C9.67 21.6 9.34 28.2 9 35 C6.03 35 3.06 35 0 35 C0 23.45 0 11.9 0 0 Z " fill="#00FFFF" transform="translate(18,13)"/>
<path d="M0 0 C3.69 -0.08 7.38 -0.16 11.19 -0.25 C12.92 -0.3 12.92 -0.3 14.69 -0.36 C22.2 -0.44 22.2 -0.44 26.21 1.77 C28.65 4.81 28.54 6.36 28.31 10.09 C27.94 12.35 27.27 14.09 26 16 C26.64 16.52 27.28 17.03 27.94 17.56 C30.64 20.76 30.93 22.85 31 27 C29.26 31.25 27.04 32.96 23 35 C20.32 35.34 20.32 35.34 17.48 35.29 C16.56 35.29 15.64 35.28 14.69 35.27 C13.53 35.24 12.38 35.22 11.19 35.19 C7.5 35.13 3.8 35.06 0 35 C0 23.45 0 11.9 0 0 Z M10 6 C10 8.64 10 11.28 10 14 C14.34 13.82 14.34 13.82 18 12 C18.04 10.33 18.04 8.67 18 7 C15.29 5.65 12.99 5.93 10 6 Z M10 20 C10 22.97 10 25.94 10 29 C15.32 29.3 15.32 29.3 20 27 C20.5 24.5 20.5 24.5 20 22 C16.36 19.57 14.29 19.84 10 20 Z " fill="#00FFFF" transform="translate(182,13)"/>
<path d="M0 0 C1.65 0.02 1.65 0.02 3.34 0.04 C4.44 0.04 5.55 0.05 6.69 0.06 C7.54 0.07 8.4 0.09 9.28 0.1 C10.99 4.76 12.7 9.42 14.4 14.09 C14.99 15.67 15.57 17.26 16.15 18.85 C16.99 21.13 17.82 23.4 18.65 25.68 C18.91 26.4 19.18 27.11 19.45 27.84 C21.28 32.87 21.28 32.87 21.28 35.1 C17.98 35.1 14.68 35.1 11.28 35.1 C10.29 32.79 9.3 30.48 8.28 28.1 C4.65 28.1 1.02 28.1 -2.72 28.1 C-4.21 31.56 -4.21 31.56 -5.72 35.1 C-9.02 35.1 -12.32 35.1 -15.72 35.1 C-13.52 27.43 -10.92 19.99 -8.1 12.54 C-7.49 10.9 -7.49 10.9 -6.86 9.23 C-3.44 0.12 -3.44 0.12 0 0 Z M2.28 11.1 C1.29 14.4 0.3 17.7 -0.72 21.1 C1.59 21.1 3.9 21.1 6.28 21.1 C5.29 17.8 4.3 14.5 3.28 11.1 C2.95 11.1 2.62 11.1 2.28 11.1 Z " fill="#00FFFF" transform="translate(356.72265625,12.90234375)"/>
<path d="M0 0 C2.97 0 5.94 0 9 0 C9.33 6.27 9.66 12.54 10 19 C10.74 17.68 11.49 16.36 12.25 15 C14.43 12.01 15.37 11.11 19.07 10.47 C22.08 10.5 25.01 10.65 28 11 C27.04 12.29 26.08 13.58 25.12 14.88 C24.59 15.59 24.06 16.31 23.51 17.05 C22 19 22 19 20 21 C20.31 24.72 22.4 27.19 24.56 30.12 C28 34.79 28 34.79 28 37 C24.2 37.55 20.78 37.79 17 37 C14.29 34.33 12.74 31.35 11 28 C10.67 28 10.34 28 10 28 C9.67 30.97 9.34 33.94 9 37 C6.03 37 3.06 37 0 37 C0 24.79 0 12.58 0 0 Z " fill="#00FFFF" transform="translate(296,11)"/>
<path d="M0 0 C3.3 0 6.6 0 10 0 C10.33 5.94 10.66 11.88 11 18 C14.8 19.12 14.8 19.12 18 19 C18 12.73 18 6.46 18 0 C21.3 0 24.6 0 28 0 C28 8.58 28 17.16 28 26 C24.04 26 20.08 26 16 26 C15.67 26.33 15.34 26.66 15 27 C10.36 27.52 6.33 27.94 2.44 25.19 C0.24 21.85 -0.12 19.23 -0.1 15.33 C-0.09 14.44 -0.09 13.55 -0.09 12.63 C-0.08 11.7 -0.07 10.77 -0.06 9.81 C-0.06 8.87 -0.05 7.93 -0.05 6.96 C-0.04 4.64 -0.02 2.32 0 0 Z " fill="#00FFFF" transform="translate(90,22)"/>
<path d="M0 0 C3.23 1.63 5.36 3.72 7 7 C7 9.97 7 12.94 7 16 C0.73 16 -5.54 16 -12 16 C-9.42 20.35 -9.42 20.35 -5.12 20.88 C-1.57 21.17 0.77 20.57 4 19 C4.99 19 5.98 19 7 19 C7 21.31 7 23.62 7 26 C3.29 28.35 -0.05 28.33 -4.38 28.38 C-5.66 28.4 -6.95 28.43 -8.27 28.46 C-13.41 27.83 -16.27 25.76 -19.84 22.12 C-22.22 17.77 -21.69 12.78 -21 8 C-16.88 -0.56 -8.46 -1.14 0 0 Z M-10.31 7.31 C-10.87 7.87 -11.43 8.43 -12 9 C-12 9.66 -12 10.32 -12 11 C-8.7 11 -5.4 11 -2 11 C-2.33 9.68 -2.66 8.36 -3 7 C-6.12 6.05 -7.41 5.66 -10.31 7.31 Z " fill="#00FFFF" transform="translate(78,21)"/>
<path d="M0 0 C2.86 2.07 3.94 3.66 5.5 6.81 C5.9 9.75 5.9 9.75 5.88 12.81 C5.88 13.82 5.89 14.83 5.9 15.88 C5.44 19.23 4.48 21.09 2.5 23.81 C-2.71 27.59 -8.31 27.48 -14.5 26.81 C-19.38 25.16 -21.24 23.38 -23.5 18.81 C-23.9 15.88 -23.9 15.88 -23.88 12.81 C-23.88 11.8 -23.89 10.79 -23.9 9.75 C-23.44 6.4 -22.48 4.53 -20.5 1.81 C-14.47 -2.56 -6.83 -2.32 0 0 Z M-13.5 6.81 C-14.16 8.87 -14.16 8.87 -14.31 11.19 C-14.4 11.96 -14.49 12.73 -14.58 13.52 C-14.49 16.16 -13.95 17.62 -12.5 19.81 C-10.1 20.89 -10.1 20.89 -7.5 20.81 C-5.48 19.3 -4.63 18.06 -3.5 15.81 C-3.25 11.99 -3.08 8.92 -5.5 5.81 C-9.3 4.45 -10.04 4.5 -13.5 6.81 Z " fill="#00FFFF" transform="translate(256.5,22.1875)"/>
<path d="M0 0 C2.86 2.07 3.94 3.66 5.5 6.81 C5.9 9.75 5.9 9.75 5.88 12.81 C5.88 13.82 5.89 14.83 5.9 15.88 C5.44 19.23 4.48 21.09 2.5 23.81 C-2.71 27.59 -8.31 27.48 -14.5 26.81 C-19.38 25.16 -21.24 23.38 -23.5 18.81 C-23.9 15.88 -23.9 15.88 -23.88 12.81 C-23.88 11.8 -23.89 10.79 -23.9 9.75 C-23.44 6.4 -22.48 4.53 -20.5 1.81 C-14.47 -2.56 -6.83 -2.32 0 0 Z M-13.5 6.81 C-14.16 8.87 -14.16 8.87 -14.31 11.19 C-14.4 11.96 -14.49 12.73 -14.58 13.52 C-14.49 16.16 -13.95 17.62 -12.5 19.81 C-10.1 20.89 -10.1 20.89 -7.5 20.81 C-5.48 19.3 -4.63 18.06 -3.5 15.81 C-3.25 11.99 -3.08 8.92 -5.5 5.81 C-9.3 4.45 -10.04 4.5 -13.5 6.81 Z " fill="#00FFFF" transform="translate(170.5,22.1875)"/>
<path d="M0 0 C7.26 0 14.52 0 22 0 C22 1.98 22 3.96 22 6 C20.02 6 18.04 6 16 6 C16 13.59 16 21.18 16 29 C17.98 29 19.96 29 22 29 C22 30.98 22 32.96 22 35 C14.74 35 7.48 35 0 35 C0 33.02 0 31.04 0 29 C1.98 29 3.96 29 6 29 C6 21.41 6 13.82 6 6 C4.02 6 2.04 6 0 6 C0 4.02 0 2.04 0 0 Z " fill="#00FFFF" transform="translate(380,13)"/>
<path d="M0 0 C1.14 -0.01 2.27 -0.01 3.44 -0.02 C6.44 0.25 6.44 0.25 9.44 2.25 C9.62 5.88 9.62 5.88 9.44 9.25 C8.74 9.11 8.04 8.96 7.31 8.81 C6.36 8.63 5.42 8.44 4.44 8.25 C3.41 8.02 2.38 7.8 1.31 7.56 C-1.76 6.92 -1.76 6.92 -4.56 9.25 C-5.99 14.76 -5.99 14.76 -4.06 19.81 C-0.55 21.83 1.56 21.15 5.44 20.25 C6.24 20.06 7.05 19.88 7.88 19.69 C8.39 19.54 8.91 19.4 9.44 19.25 C9.44 21.89 9.44 24.53 9.44 27.25 C3.98 29.07 -3.17 29.48 -8.64 27.5 C-11.58 25.6 -13.73 23.2 -15.56 20.25 C-16.34 15.61 -16.66 10.53 -14.58 6.2 C-10.39 0.98 -6.47 -0.03 0 0 Z " fill="#00FFFF" transform="translate(281.5625,20.75)"/>
<path d="M0 0 C2.97 0 5.94 0 9 0 C9 12.21 9 24.42 9 37 C6.03 37 3.06 37 0 37 C0 24.79 0 12.58 0 0 Z " fill="#00FFFF" transform="translate(218,11)"/>
<path d="M0 0 C3.3 0 6.6 0 10 0 C10 0.66 10 1.32 10 2 C10.8 1.5 10.8 1.5 11.62 1 C14.54 -0.23 16.87 -0.14 20 0 C20 2.31 20 4.62 20 7 C16.7 7.33 13.4 7.66 10 8 C10 13.94 10 19.88 10 26 C6.7 26 3.4 26 0 26 C0 17.42 0 8.84 0 0 Z " fill="#00FFFF" transform="translate(124,22)"/>
</svg>
