<svg width="57" height="57" viewBox="0 0 57 57" fill="none" xmlns="http://www.w3.org/2000/svg">
<path d="M1.01786 5.87081e-05C0.455491 5.87081e-05 0 0.45555 0 1.01791V47.8393C0 50.6384 2.29016 52.9286 5.08928 52.9286H28.5003C28.77 52.9286 29.0296 52.8217 29.2204 52.6309C29.4113 52.44 29.5182 52.1805 29.5182 51.9107C29.5182 51.641 29.4113 51.3814 29.2204 51.1905C29.0296 50.9997 28.77 50.8928 28.5003 50.8928H5.08928C3.39198 50.8928 2.03571 49.5366 2.03571 47.8393V1.01788C2.03571 0.748145 1.92884 0.488591 1.73799 0.297722C1.54714 0.106854 1.28761 5.87081e-05 1.01786 5.87081e-05Z" fill="#5AE3EA"/>
<path d="M42.75 28.5C34.8925 28.5 28.5 34.8921 28.5 42.75C28.5 50.6078 34.8921 57 42.75 57C50.6078 57 57 50.6078 57 42.75C57 34.8921 50.6078 28.5 42.75 28.5ZM42.75 30.5357C49.5085 30.5357 54.9643 35.9914 54.9643 42.75C54.9643 49.5085 49.5085 54.9643 42.75 54.9643C35.9914 54.9643 30.5357 49.5085 30.5357 42.75C30.5357 35.9914 35.9914 30.5357 42.75 30.5357Z" fill="#5AE3EA"/>
<path d="M42.7502 32.5232C37.1139 32.5232 32.5234 37.1137 32.5234 42.75C32.5234 48.3862 37.114 52.9767 42.7502 52.9767C48.3864 52.9767 52.977 48.3862 52.977 42.75C52.977 37.1137 48.3864 32.5232 42.7502 32.5232ZM42.7502 34.5589C47.2847 34.5589 50.9413 38.2156 50.9413 42.75C50.9413 47.2844 47.2846 50.941 42.7502 50.941C38.2158 50.941 34.5591 47.2844 34.5591 42.75C34.5591 38.2156 38.2158 34.5589 42.7502 34.5589Z" fill="#5AE3EA"/>
<path d="M42.7498 36.4395C42.1875 36.4395 41.732 36.8949 41.732 37.4573V38.208C40.5131 38.2792 39.5283 39.3072 39.5283 40.5439V41.4244C39.5283 42.7069 40.5869 43.768 41.8668 43.768H43.6328C43.8134 43.768 43.9381 43.8927 43.9381 44.0734V44.9538C43.9381 45.1345 43.8134 45.2592 43.6328 45.2592H40.9863C40.424 45.2592 39.9685 45.7147 39.9685 46.2771C39.9685 46.8394 40.424 47.2949 40.9863 47.2949L41.7319 47.2975V48.043C41.7319 48.6054 42.1874 49.0609 42.7498 49.0609C43.3121 49.0609 43.7676 48.6054 43.7676 48.043V47.2924C44.9865 47.2211 45.9713 46.1931 45.9713 44.9564V44.0734C45.9713 42.7935 44.9127 41.7323 43.6328 41.7323H41.8668C41.6861 41.7323 41.5615 41.6076 41.5615 41.427V40.5465C41.5615 40.3658 41.6861 40.2411 41.8668 40.2411H44.5132C45.0756 40.2411 45.5311 39.7856 45.5311 39.2233C45.5311 38.6609 45.0756 38.2054 44.5132 38.2054L43.7677 38.2029V37.4573C43.7677 36.8949 43.3122 36.4395 42.7498 36.4395Z" fill="#5AE3EA"/>
<path d="M9.16048 15.6011C8.59811 15.6011 8.14262 16.0566 8.14262 16.6189V21.3749H6.55985C5.99748 21.3749 5.54199 21.8304 5.54199 22.3927V34.3959C5.54199 34.9583 5.99748 35.4138 6.55985 35.4138H8.14262V40.1774C8.14262 40.7397 8.59811 41.1952 9.16048 41.1952C9.72284 41.1952 10.1783 40.7397 10.1783 40.1774V35.4138H11.7611C12.3235 35.4138 12.779 34.9583 12.779 34.3959V22.3927C12.779 21.8304 12.3235 21.3749 11.7611 21.3749H10.1783V16.6189C10.1783 16.0566 9.72284 15.6011 9.16048 15.6011ZM7.5777 23.4104H10.7433V33.3779H7.5777V23.4104Z" fill="#5AE3EA"/>
<path d="M27.9355 9.01318C27.3731 9.01318 26.9176 9.46867 26.9176 10.031V14.787H25.3323C24.7699 14.787 24.3145 15.2425 24.3145 15.8048V27.8081C24.3145 28.3704 24.7699 28.8259 25.3323 28.8259H26.9176V33.5895C26.9176 34.1518 27.3731 34.6073 27.9355 34.6073C28.4978 34.6073 28.9533 34.1518 28.9533 33.5895V28.8259H30.5361C31.0985 28.8259 31.554 28.3704 31.554 27.8081V15.8048C31.554 15.2425 31.0985 14.787 30.5361 14.787H28.9533V10.031C28.9533 9.46867 28.4978 9.01318 27.9355 9.01318ZM26.3502 16.8225H29.5183V26.79H26.3502V16.8225Z" fill="#5AE3EA"/>
<path d="M18.2064 5.52946C17.644 5.52946 17.1885 5.98495 17.1885 6.54732V11.3033H15.6057C15.0434 11.3033 14.5879 11.7588 14.5879 12.3211V24.3243C14.5879 24.8867 15.0434 25.3422 15.6057 25.3422H17.1885V30.1058C17.1885 30.6681 17.644 31.1236 18.2064 31.1236C18.7687 31.1236 19.2242 30.6681 19.2242 30.1058V25.3422H20.8095C21.3719 25.3422 21.8274 24.8867 21.8274 24.3243V12.3185C21.8274 11.7561 21.3719 11.3007 20.8095 11.3007H19.2242V6.54471C19.2242 5.98235 18.7687 5.52686 18.2064 5.52686V5.52946ZM16.6236 13.3388H19.7917V23.3063H16.6236V13.3388Z" fill="#5AE3EA"/>
<path d="M37.5462 7.45825C36.9839 7.45825 36.5284 7.91374 36.5284 8.47611V13.2321H34.9456C34.3832 13.2321 33.9277 13.6875 33.9277 14.2499V26.2531C33.9277 26.8155 34.3832 27.271 34.9456 27.271H40.1494C40.7118 27.271 41.1673 26.8155 41.1673 26.2531V14.2499C41.1673 13.6875 40.7118 13.2321 40.1494 13.2321H38.5641V8.47611C38.5641 7.91374 38.1086 7.45825 37.5462 7.45825ZM35.966 15.2676H39.1341V25.2351H35.966V15.2676Z" fill="#5AE3EA"/>
<path d="M47.8392 15.6011C47.2768 15.6011 46.8213 16.0566 46.8213 16.619V21.3749H45.2386C44.6762 21.3749 44.2207 21.8304 44.2207 22.3928V26.4999C44.2207 27.0622 44.6762 27.5177 45.2386 27.5177C45.8009 27.5177 46.2564 27.0622 46.2564 26.4999V23.4107H49.422V28.3167C49.422 28.879 49.8775 29.3345 50.4398 29.3345C51.0022 29.3345 51.4577 28.879 51.4577 28.3167V22.3927C51.4577 21.8304 51.0022 21.3749 50.4398 21.3749H48.857V16.6189C48.857 16.0566 48.4016 15.6011 47.8392 15.6011Z" fill="#5AE3EA"/>
</svg>
