<svg width="47" height="57" viewBox="0 0 47 57" fill="none" xmlns="http://www.w3.org/2000/svg">
<path d="M31.0451 25.7668C30.7402 25.7668 30.4353 25.6501 30.2019 25.4191C29.7374 24.9546 29.7374 24.1995 30.2019 23.735C34.0036 19.9333 34.0036 13.7496 30.2019 9.94797C29.7374 9.48348 29.7374 8.72838 30.2019 8.26389C30.6664 7.7994 31.4215 7.7994 31.886 8.26389C36.6166 12.9945 36.6166 20.6884 31.886 25.4191C31.6549 25.6501 31.35 25.7668 31.0451 25.7668Z" fill="#5AE3EA"/>
<path d="M35.0695 29.4063C34.7646 29.4063 34.4597 29.2895 34.2263 29.0585C33.7618 28.594 33.7618 27.8389 34.2263 27.3744C40.0336 21.5671 40.0336 12.1153 34.2263 6.30563C33.7618 5.84115 33.7618 5.08605 34.2263 4.62156C34.6908 4.15707 35.4459 4.15707 35.9104 4.62156C42.649 11.3579 42.649 22.3222 35.9104 29.0585C35.6793 29.2895 35.3744 29.4063 35.0695 29.4063Z" fill="#5AE3EA"/>
<path d="M38.9611 33.6795C38.6562 33.6795 38.3513 33.5628 38.1179 33.3317C37.6534 32.8672 37.6534 32.1121 38.1179 31.6477C42.072 27.6912 44.2516 22.4341 44.2516 16.8411C44.2516 11.2482 42.072 5.98876 38.1179 2.03464C37.6534 1.57015 37.6534 0.815055 38.1179 0.350565C38.5824 -0.113925 39.3375 -0.113925 39.802 0.350565C48.8941 9.44266 48.8941 24.2396 39.802 33.3341C39.5709 33.5628 39.266 33.6795 38.9611 33.6795Z" fill="#5AE3EA"/>
<path d="M15.5748 25.7668C15.2699 25.7668 14.965 25.6501 14.7316 25.4191C10.0009 20.6884 10.0009 12.9945 14.7316 8.26389C15.1961 7.7994 15.9512 7.7994 16.4157 8.26389C16.8801 8.72838 16.8801 9.48348 16.4157 9.94797C12.614 13.7496 12.614 19.9333 16.4157 23.735C16.8801 24.1995 16.8801 24.9546 16.4157 25.4191C16.1846 25.6501 15.8797 25.7668 15.5748 25.7668Z" fill="#5AE3EA"/>
<path d="M11.5545 29.4063C11.2496 29.4063 10.9447 29.2895 10.7112 29.0585C3.97256 22.3222 3.97256 11.3579 10.7112 4.62156C11.1757 4.15707 11.9308 4.15707 12.3953 4.62156C12.8598 5.08605 12.8598 5.84115 12.3953 6.30564C6.58799 12.113 6.58799 21.5647 12.3953 27.3744C12.8598 27.8389 12.8598 28.594 12.3953 29.0585C12.1643 29.2895 11.8594 29.4063 11.5545 29.4063Z" fill="#5AE3EA"/>
<path d="M7.6623 33.6797C7.3574 33.6797 7.05251 33.563 6.81907 33.3319C-2.27302 24.2398 -2.27302 9.44284 6.81907 0.348367C7.28356 -0.116122 8.03865 -0.116122 8.50314 0.348367C8.96763 0.812857 8.96763 1.56795 8.50314 2.03244C4.55141 5.98894 2.37188 11.246 2.37188 16.839C2.37188 22.4319 4.55141 27.6913 8.50553 31.6455C8.97002 32.11 8.97002 32.865 8.50553 33.3295C8.27209 33.563 7.96719 33.6797 7.6623 33.6797Z" fill="#5AE3EA"/>
<path d="M23.312 22.2791C21.859 22.2791 20.4917 21.7146 19.4651 20.6856C18.4361 19.6589 17.8691 18.294 17.8691 16.8386C17.8691 15.3832 18.4361 14.0183 19.4627 12.9917C21.516 10.936 25.1033 10.936 27.1566 12.9917C29.2789 15.1141 29.2789 18.5656 27.1566 20.6856C26.1323 21.7146 24.765 22.2791 23.312 22.2791ZM23.312 13.7801C22.495 13.7801 21.7256 14.0969 21.1492 14.6758C20.5727 15.2546 20.2535 16.0216 20.2535 16.8386C20.2535 17.6557 20.5727 18.425 21.1492 19.0015C22.3044 20.1568 24.3196 20.1568 25.4749 19.0015C26.6659 17.8081 26.6659 15.8692 25.4749 14.6758C24.8984 14.0969 24.129 13.7801 23.312 13.7801Z" fill="#5AE3EA"/>
<path d="M37.1892 56.9949H9.43414C9.0292 56.9949 8.65047 56.79 8.4337 56.4494C8.21456 56.1088 8.18359 55.68 8.35033 55.3108L22.2898 24.7307C22.4851 24.3067 22.9067 24.0352 23.3736 24.0352H23.376C23.8429 24.0352 24.2669 24.3091 24.4598 24.7355L38.2754 55.3156C38.4421 55.6848 38.4112 56.1112 38.1896 56.4518C37.9705 56.79 37.5941 56.9949 37.1892 56.9949ZM11.285 54.6129H35.3455L23.3688 28.106L11.285 54.6129Z" fill="#5AE3EA"/>
<path d="M23.3736 56.5758C22.7162 56.5758 22.1826 56.0423 22.1826 55.3848V25.224C22.1826 24.5665 22.7162 24.033 23.3736 24.033C24.031 24.033 24.5646 24.5665 24.5646 25.224V55.3872C24.5646 56.0447 24.031 56.5758 23.3736 56.5758Z" fill="#5AE3EA"/>
<path d="M36.3573 57.0001C36.1167 57.0001 35.8714 56.9262 35.6617 56.7762L16.5914 43.0249C16.0579 42.639 15.9388 41.8958 16.3223 41.3623C16.7082 40.8287 17.4514 40.7072 17.9849 41.0931L37.0552 54.8444C37.5888 55.2303 37.7079 55.9734 37.3244 56.507C37.0909 56.8262 36.7265 57.0001 36.3573 57.0001Z" fill="#5AE3EA"/>
<path d="M10.2708 56.9949C9.90161 56.9949 9.53716 56.8234 9.30373 56.4994C8.92023 55.9658 9.03933 55.2203 9.57289 54.8368L28.6884 41.0521C29.2244 40.6686 29.9676 40.7925 30.3511 41.3213C30.7346 41.8549 30.6155 42.6004 30.0819 42.9839L10.9664 56.7686C10.7567 56.921 10.5114 56.9949 10.2708 56.9949Z" fill="#5AE3EA"/>
</svg>
