<svg width="56" height="57" viewBox="0 0 56 57" fill="none" xmlns="http://www.w3.org/2000/svg">
<path fill-rule="evenodd" clip-rule="evenodd" d="M49.5376 6.64714C49.545 6.31801 49.352 6.0161 49.0501 5.88742C48.7457 5.75626 48.3942 5.82555 48.1617 6.05818L27.384 27.5536C27.1514 27.7912 27.0821 28.1401 27.2059 28.447C27.3271 28.7539 27.6167 28.9593 27.9458 28.9741C28.1611 28.9741 28.3665 28.8875 28.5175 28.7341L49.3027 7.23863C49.4537 7.07777 49.5351 6.86739 49.5376 6.64714ZM46.37 5.43699L39.6287 12.445L38.9308 9.56198L45.7114 2.53621L46.4018 5.41925L46.37 5.43699ZM43.1256 16.0681L49.9037 9.05503L52.6902 9.77763L45.9147 16.7838L43.1282 16.0686L43.1256 16.0681ZM27.3566 3.63271C27.5076 3.7911 27.5917 4.00144 27.5917 4.22169V11.3165C27.5917 11.5343 27.5076 11.7422 27.3566 11.9005C27.1265 12.1356 26.7775 12.2049 26.4732 12.0762C26.1713 11.9476 25.9782 11.6456 25.9881 11.3165V4.22171C25.9758 3.89257 26.1688 3.58818 26.4707 3.45705C26.7751 3.32589 27.1265 3.39515 27.3566 3.63271ZM29.2572 10.4678V5.39961C32.3035 5.73865 35.2484 6.68642 37.9187 8.18857L37.4114 8.7132C37.2159 8.92602 37.1367 9.22299 37.2035 9.5051L38.2553 13.8705L37.9509 14.1872C35.4391 12.1951 32.4398 10.9107 29.2647 10.4677L29.2572 10.4678ZM26.9582 25.5786L26.1985 26.3309C25.7308 26.8184 25.4734 27.4693 25.4759 28.1448C25.4487 29.157 26.0426 30.085 26.9756 30.4834C27.9061 30.8819 28.9875 30.669 29.7002 29.9489L30.4277 29.1941H30.4302C30.4376 30.6864 29.5368 32.0326 28.156 32.5919C26.7751 33.1536 25.1913 32.8146 24.1594 31.7381C23.1274 30.6641 22.8552 29.0679 23.4714 27.7093C24.0876 26.3531 25.4684 25.5068 26.9582 25.5786ZM27.3838 46.7819C27.1512 46.5468 26.7998 46.4776 26.4955 46.6062C26.1935 46.7374 26.0005 47.0418 26.0154 47.3709V54.4854C26.0005 54.8145 26.1935 55.1189 26.4955 55.25C26.7998 55.3812 27.1513 55.3094 27.3838 55.0743C27.5249 54.911 27.5991 54.7006 27.5917 54.4853V47.3709C27.5917 47.1531 27.5076 46.9403 27.3566 46.7819L27.3838 46.7819ZM51.6655 29.929C51.5145 30.0824 51.3091 30.169 51.0963 30.1715H44.2213C44.006 30.169 43.8031 30.0824 43.6521 29.929C43.4195 29.6939 43.3502 29.3425 43.474 29.0356C43.5977 28.7287 43.8897 28.5233 44.2213 28.5109H51.0761C51.4077 28.5233 51.6997 28.7287 51.8234 29.0356C51.9472 29.3424 51.8779 29.6939 51.6452 29.929H51.6655ZM45.0579 26.7614C44.6322 23.5195 43.3899 20.436 41.4473 17.8053L41.7517 17.4885L45.9141 18.56V18.5576C46.2086 18.6664 46.5377 18.5947 46.7629 18.3744L47.2702 17.8498H47.2677C48.7303 20.6363 49.6435 23.6752 49.9602 26.8059L45.0579 26.7614ZM49.98 31.879L45.038 31.8815C43.9368 40.3574 37.4358 47.086 29.2646 48.1947V53.2629C40.1555 52.0726 48.8145 43.1265 49.963 31.8568L49.98 31.879ZM9.92935 29.929C10.1595 29.6939 10.2288 29.3425 10.105 29.0356C9.98132 28.7287 9.6893 28.5233 9.35768 28.5109H2.50297C2.17383 28.5233 1.87934 28.7287 1.75807 29.0356C1.63434 29.3424 1.70363 29.6939 1.93377 29.929C2.08473 30.0824 2.29013 30.169 2.50295 30.1715H9.35767C9.57297 30.1665 9.77592 30.0824 9.92935 29.929ZM3.59412 26.7614H8.51627C9.61259 18.2855 16.1185 11.5568 24.2897 10.4482V5.37997C13.4261 6.56535 4.78419 15.5163 3.61851 26.781L3.59412 26.7614ZM1.90882 31.8295C1.02538 31.592 0.334899 30.9016 0.0923869 30.0205C-0.150132 29.1371 0.0923869 28.1917 0.730851 27.5359C1.05256 27.1919 1.47328 26.9543 1.93353 26.8504C3.07438 14.5734 12.5077 4.81081 24.3792 3.63753C24.5574 2.74667 25.2157 2.02648 26.0868 1.76914C26.9603 1.51425 27.9032 1.76172 28.5343 2.41502C28.856 2.75653 29.0737 3.17968 29.1678 3.63753C32.6843 3.98399 36.0795 5.09761 39.116 6.90163L45.5703 0.254709C45.7881 0.0270334 46.1197 -0.0571047 46.4216 0.0394124C46.7211 0.135923 46.9413 0.398246 46.9834 0.71253L47.8644 4.26621C48.7998 3.94945 49.8367 4.20434 50.5173 4.92203C51.1978 5.63973 51.3982 6.68652 51.032 7.60462L54.5164 8.50543C54.8109 8.5871 55.041 8.81971 55.1202 9.11668C55.2019 9.41116 55.1202 9.72793 54.9098 9.94818L48.498 16.5628C50.2525 19.7353 51.3315 23.2395 51.6656 26.8499C52.549 27.09 53.2395 27.7779 53.482 28.6614C53.7245 29.5449 53.482 30.4902 52.8435 31.146C52.5268 31.4826 52.116 31.7202 51.6656 31.829C50.5074 44.1086 41.0737 53.8515 29.2002 55.0419C29.0196 55.9303 28.3638 56.643 27.4976 56.9004C26.629 57.1553 25.6911 56.9128 25.0576 56.2644C24.7383 55.9229 24.5181 55.4998 24.424 55.0419C12.5081 53.8516 3.07495 44.1086 1.93398 31.829L1.90882 31.8295ZM8.51647 31.8988L3.61902 31.9013C4.78457 43.1634 13.4259 52.117 24.3149 53.3074V48.2392C16.1165 47.1058 9.63495 40.4019 8.54149 31.926L8.51647 31.8988ZM16.6262 28.5109C16.7796 26.0536 17.8042 23.7298 19.5117 21.9553C21.2217 20.1834 23.5059 19.0747 25.9584 18.8297V19.8691C25.9361 20.1042 26.0153 20.3343 26.1737 20.5075C26.3321 20.6808 26.5548 20.7773 26.7899 20.7773C27.025 20.7773 27.2477 20.6808 27.4061 20.5075C27.5645 20.3343 27.6437 20.1042 27.6239 19.8691V18.8297C29.1854 18.9584 30.6926 19.4533 32.0264 20.2749L28.3514 24.076C26.7107 23.5811 24.9339 23.9053 23.5703 24.9422C22.2092 25.9815 21.4247 27.6099 21.4643 29.3224C21.4346 30.7602 21.9791 32.1535 22.9788 33.1904C23.9761 34.2273 25.3471 34.8237 26.7874 34.846C28.5073 34.8014 30.106 33.9501 31.1033 32.5495C32.0981 31.1463 32.3777 29.3571 31.8556 27.7189L35.5305 23.9177C36.3472 25.3208 36.8347 26.8923 36.9559 28.5108H35.9488C35.4711 28.5108 35.0851 28.8968 35.0851 29.372C35.0851 29.8471 35.4711 30.2332 35.9488 30.2332H36.9559C36.7852 32.6807 35.7557 34.9895 34.0482 36.749C32.3407 38.5084 30.0639 39.6072 27.6236 39.8497V38.8128C27.6434 38.5778 27.5642 38.3476 27.4059 38.1744C27.2475 38.0012 27.0248 37.9022 26.7897 37.9022C26.5546 37.9022 26.3318 38.0012 26.1735 38.1744C26.0151 38.3476 25.9359 38.5778 25.9582 38.8128V39.8497C23.5107 39.6072 21.2315 38.5035 19.5216 36.7365C17.814 34.9696 16.787 32.6558 16.6262 30.2037H17.6334C18.1085 30.2037 18.4946 29.8176 18.4946 29.34C18.4946 28.8648 18.1085 28.4788 17.6334 28.4788L16.6262 28.5109ZM13.8842 30.2334H14.9558H14.9533C15.1043 33.1411 16.302 35.8979 18.3238 37.9915C20.3457 40.0876 23.0555 41.3818 25.9584 41.6367V42.7404C25.9361 42.9731 26.0153 43.2057 26.1737 43.3764C26.3321 43.5497 26.5548 43.6486 26.7899 43.6486C27.025 43.6486 27.2477 43.5497 27.4061 43.3764C27.5645 43.2057 27.6437 42.973 27.6239 42.7404V41.5872C30.5242 41.3323 33.2341 40.0356 35.2559 37.942C37.2778 35.8459 38.4755 33.0916 38.6289 30.1839H39.7005H39.698C40.1731 30.1839 40.5592 29.7978 40.5592 29.3227C40.5592 28.8451 40.1732 28.4615 39.698 28.4615H38.6289C38.4854 26.3951 37.8346 24.3955 36.7284 22.6435L40.2622 19.0081C41.9351 21.3467 43.0066 24.059 43.3853 26.9075C43.0388 27.0486 42.7295 27.2663 42.4795 27.541C41.8807 28.1646 41.6308 29.0456 41.8114 29.8895C41.992 30.7333 42.5835 31.4337 43.3853 31.7554C42.3583 39.3577 36.5059 45.4452 29.1234 46.5044L29.1259 46.502C28.9997 46.153 28.8017 45.8313 28.5419 45.5665C27.9479 44.9503 27.0744 44.6905 26.2404 44.8835C25.4064 45.0741 24.7333 45.6902 24.4685 46.502C17.0816 45.4378 11.2292 39.3824 10.2016 31.7479C10.548 31.6093 10.8574 31.394 11.1073 31.1143C11.7062 30.4932 11.9561 29.6122 11.7755 28.7683C11.5924 27.922 11.0034 27.2241 10.2016 26.9024C11.2286 19.3002 17.081 13.2126 24.4634 12.1534H24.461C24.5847 12.5172 24.7901 12.8488 25.0574 13.1234C25.6513 13.7396 26.5249 13.997 27.3588 13.8064C28.1928 13.6134 28.8659 12.9997 29.1307 12.1855C31.8999 12.5914 34.5182 13.7049 36.733 15.415L33.2289 19.0454C31.5609 17.9244 29.6282 17.2562 27.6237 17.1077V15.9916C27.6434 15.759 27.5643 15.5289 27.4059 15.3557C27.2475 15.1824 27.0248 15.0834 26.7897 15.0834C26.5546 15.0834 26.3319 15.1824 26.1735 15.3557C26.0151 15.5289 25.9359 15.759 25.9582 15.9916V17.1077C23.0554 17.3601 20.3431 18.6544 18.3211 20.7505C16.2992 22.8466 15.1015 25.6034 14.953 28.5111H13.8815C13.4063 28.5111 13.0203 28.8972 13.0203 29.3723C13.0203 29.8475 13.4063 30.2336 13.8815 30.2336L13.8842 30.2334Z" fill="#5AE3EA"/>
</svg>
