<svg width="57" height="57" viewBox="0 0 57 57" fill="none" xmlns="http://www.w3.org/2000/svg">
<path fill-rule="evenodd" clip-rule="evenodd" d="M25.5159 23.2794H31.5471C32.1487 23.2794 32.6838 23.5216 33.0823 23.9122C33.4729 24.3028 33.7151 24.8497 33.7151 25.4474V31.4786C33.7151 32.0802 33.4729 32.6153 33.0823 33.0138C32.6917 33.4044 32.1448 33.6466 31.5471 33.6466H25.5159C24.9144 33.6466 24.3792 33.4044 23.9807 33.0138C23.5901 32.6232 23.3479 32.0763 23.3479 31.4786V25.4474C23.3479 24.8458 23.5901 24.3107 23.9807 23.9122C24.3714 23.5216 24.9182 23.2794 25.5159 23.2794ZM31.5042 25.5021V31.4396H25.5667V25.5021H31.5042ZM18.0202 16.1115H39.0402C39.5441 16.1115 40.009 16.3224 40.3449 16.6467C40.6809 16.9748 40.8801 17.4474 40.8801 17.9514V38.9714C40.8801 39.4753 40.6692 39.9401 40.3449 40.2644C40.009 40.6003 39.5442 40.7995 39.0402 40.7995H18.0202C17.5163 40.7995 17.0515 40.5886 16.7155 40.2644C16.3796 39.9284 16.1804 39.4636 16.1804 38.9597V17.9397C16.1804 17.4357 16.3913 16.9709 16.7155 16.635C17.0515 16.299 17.5163 16.0998 18.0202 16.0998V16.1115ZM38.6722 18.3342V38.6072H18.3992V18.3342H38.6722ZM4.15623 44.0722C4.15623 43.8495 4.24998 43.6503 4.39842 43.5019C4.54686 43.3534 4.74608 43.2597 4.96873 43.2597C5.19139 43.2597 5.39842 43.3534 5.53904 43.5019C5.68748 43.6503 5.76951 43.8495 5.76951 44.0722C5.76951 44.2948 5.67576 44.5019 5.53904 44.6425C5.3906 44.7909 5.19138 44.8847 4.96873 44.8847C4.74607 44.8847 4.54685 44.7909 4.39842 44.6425C4.24998 44.4941 4.15623 44.2948 4.15623 44.0722ZM2.82033 46.2206C2.27345 45.6737 1.93752 44.9159 1.93752 44.0722C1.93752 43.2285 2.27346 42.4824 2.82033 41.9355C3.3672 41.3886 4.12503 41.0527 4.96873 41.0527C5.11717 41.0527 5.25389 41.0527 5.3906 41.0839L6.6953 38.7675C6.89452 38.4082 7.27342 38.2089 7.65233 38.2089H12.0429V35.1972H7.83203C7.22265 35.1972 6.72653 34.7012 6.72653 34.0917C6.72653 33.4823 7.22262 32.9862 7.83203 32.9862H12.0429V29.619H6.72653C6.55856 30.123 6.26169 30.5878 5.8945 30.9549C5.27341 31.5878 4.3984 31.9666 3.4531 31.9666C2.50388 31.9666 1.6328 31.576 1.0117 30.9549C0.3906 30.3339 0 29.4588 0 28.5135C0 27.5643 0.39062 26.6932 1.0117 26.0721C1.63278 25.451 2.5078 25.0604 3.4531 25.0604C4.40232 25.0604 5.2734 25.4511 5.8945 26.0721C6.26169 26.4393 6.55856 26.9042 6.72653 27.408H12.0429V24.2166H7.86323C7.25385 24.2166 6.75773 23.7206 6.75773 23.1111C6.75773 22.5017 7.25382 22.0056 7.86323 22.0056H12.0429V18.8142H7.65233C7.26171 18.8142 6.89452 18.6033 6.6953 18.2439L5.3906 15.9275C5.25388 15.9471 5.10544 15.9588 4.96873 15.9588C4.1367 15.9588 3.37893 15.6228 2.83203 15.076C2.28513 14.5291 1.94922 13.7713 1.94922 12.9393C1.94922 12.1073 2.28516 11.3495 2.83203 10.7909C3.37891 10.244 4.13673 9.90806 4.96873 9.90806C5.80076 9.90806 6.55853 10.244 7.11713 10.7909C7.66401 11.3378 7.99994 12.0956 7.99994 12.9393C7.99994 13.6658 7.74603 14.3299 7.31635 14.8534L8.30463 16.6112H12.0507V15.537C12.0507 14.5799 12.4413 13.705 13.0702 13.0722C13.703 12.4394 14.5663 12.0527 15.535 12.0527H16.6092V8.30657L14.8514 7.31829C14.3241 7.74016 13.66 8.00188 12.9373 8.00188C12.1053 8.00188 11.3475 7.66594 10.7889 7.11907C10.242 6.57219 9.90612 5.81437 9.90612 4.97067C9.90612 4.12697 10.2421 3.38087 10.7889 2.82227C11.3358 2.27539 12.0936 1.93946 12.9373 1.93946C13.781 1.93946 14.5271 2.2754 15.0857 2.82227C15.6443 3.36914 15.9685 4.12697 15.9685 4.97067C15.9685 5.11911 15.9685 5.25583 15.9373 5.39255L18.2537 6.69725C18.6131 6.89647 18.8123 7.27537 18.8123 7.65428V12.0449H21.8123V7.83398C21.8123 7.22461 22.3084 6.72848 22.9178 6.72848C23.5272 6.72848 24.0233 7.22457 24.0233 7.83398V12.0449H27.3905V6.72848C26.8866 6.56051 26.4217 6.26364 26.0546 5.89645C25.4335 5.27536 25.0429 4.40035 25.0429 3.45505C25.0429 2.50583 25.4335 1.63475 26.0546 1.01365C26.6757 0.392553 27.5507 0.00195312 28.496 0.00195312C29.4452 0.00195312 30.3163 0.392573 30.9374 1.01365C31.5585 1.63474 31.9491 2.50975 31.9491 3.45505C31.9491 4.40427 31.5585 5.27535 30.9374 5.89645C30.5702 6.26364 30.1054 6.56051 29.6015 6.72848V12.0449H32.7929V7.86518C32.7929 7.25581 33.289 6.75968 33.8984 6.75968C34.5078 6.75968 35.0039 7.25577 35.0039 7.86518V12.0449H38.1953V7.65428C38.1953 7.26366 38.3945 6.89647 38.7539 6.69725L41.0703 5.39255C41.0507 5.25583 41.039 5.10739 41.039 4.97067C41.039 4.13864 41.375 3.38087 41.9218 2.82227C42.4687 2.26368 43.2265 1.93946 44.0702 1.93946C44.9139 1.93946 45.66 2.2754 46.2186 2.82227C46.7655 3.36915 47.1014 4.12697 47.1014 4.97067C47.1014 5.81437 46.7655 6.56047 46.2186 7.11907C45.6717 7.66595 44.9139 8.00188 44.0702 8.00188C43.3437 8.00188 42.6796 7.74797 42.1561 7.31829L40.3983 8.30657V12.0527H41.4725C42.4296 12.0527 43.3045 12.4433 43.9373 13.0722C44.5701 13.705 44.9568 14.5683 44.9568 15.537V16.6112H48.7029L49.6912 14.8534C49.2693 14.326 49.0076 13.662 49.0076 12.9393C49.0076 12.1072 49.3436 11.3495 49.8904 10.7909C50.4373 10.244 51.1951 9.90806 52.0271 9.90806C52.8591 9.90806 53.6169 10.244 54.1755 10.7909C54.7224 11.3378 55.0583 12.0956 55.0583 12.9393C55.0583 13.783 54.7224 14.5291 54.1755 15.076C53.6287 15.6229 52.8708 15.9588 52.0271 15.9588C51.8787 15.9588 51.742 15.9588 51.6052 15.9275L50.3006 18.2439C50.1013 18.6033 49.7224 18.8025 49.3435 18.8025H44.9529V21.8025H49.1638C49.7732 21.8025 50.2693 22.2986 50.2693 22.908C50.2693 23.5174 49.7732 24.0135 49.1638 24.0135H44.9529V27.3807H50.2693C50.4373 26.8768 50.7342 26.412 51.1013 26.0448C51.7224 25.412 52.5974 25.0331 53.5427 25.0331C54.492 25.0331 55.3631 25.4237 55.9842 26.0448C56.6052 26.6659 56.9958 27.5409 56.9958 28.4862C56.9958 29.4354 56.6052 30.3065 55.9842 30.9276C55.3631 31.5487 54.488 31.9393 53.5427 31.9393C52.5935 31.9393 51.7225 31.5487 51.1013 30.9276C50.7342 30.5604 50.4373 30.0956 50.2693 29.5917H44.9529V32.7831H49.1326C49.742 32.7831 50.2381 33.2792 50.2381 33.8886C50.2381 34.498 49.742 34.9941 49.1326 34.9941H44.9529V38.1855H49.3435C49.7341 38.1855 50.1013 38.3965 50.3006 38.7558L51.6052 41.0722C51.742 41.0527 51.8904 41.041 52.0271 41.041C52.8592 41.041 53.6169 41.3769 54.1755 41.9238C54.7224 42.4707 55.0583 43.2285 55.0583 44.0605C55.0583 44.8925 54.7224 45.6503 54.1755 46.2089C53.6287 46.7558 52.8708 47.0917 52.0271 47.0917C51.1834 47.0917 50.4373 46.7558 49.8904 46.2089C49.3436 45.662 49.0076 44.9042 49.0076 44.0605C49.0076 43.3339 49.2615 42.6699 49.6912 42.1464L48.7029 40.3886H44.9568V41.4628C44.9568 42.4198 44.5662 43.2948 43.9373 43.9276C43.3045 44.5604 42.4412 44.9471 41.4725 44.9471H40.3983V48.6932L42.1561 49.6815C42.6835 49.2596 43.3475 48.9979 44.0702 48.9979C44.9023 48.9979 45.66 49.3338 46.2186 49.8807C46.7655 50.4276 47.1014 51.1854 47.1014 52.0291C47.1014 52.8728 46.7655 53.6189 46.2186 54.1775C45.6717 54.7244 44.9139 55.0603 44.0702 55.0603C43.2265 55.0603 42.4804 54.7244 41.9218 54.1775C41.3632 53.6306 41.039 52.8728 41.039 52.0291C41.039 51.8806 41.039 51.7439 41.0703 51.6072L38.7539 50.3025C38.3945 50.1033 38.1953 49.7244 38.1953 49.3455V44.9549H35.1953V49.1658C35.1953 49.7752 34.6992 50.2713 34.0898 50.2713C33.4804 50.2713 32.9843 49.7752 32.9843 49.1658V44.9549H29.6171V50.2713C30.121 50.4392 30.5858 50.7361 30.953 51.1033C31.5741 51.7244 31.9647 52.5994 31.9647 53.5447C31.9647 54.4939 31.5741 55.365 30.953 55.9861C30.3319 56.6072 29.4569 56.9978 28.5116 56.9978C27.5624 56.9978 26.6913 56.6072 26.0702 55.9861C25.4491 55.365 25.0585 54.49 25.0585 53.5447C25.0585 52.5955 25.4491 51.7244 26.0702 51.1033C26.4374 50.7361 26.9022 50.4392 27.4061 50.2713V44.9549H24.2147V49.1346C24.2147 49.744 23.7186 50.2401 23.1092 50.2401C22.4998 50.2401 22.0037 49.744 22.0037 49.1346V44.9549H18.8123V49.3455C18.8123 49.7361 18.6131 50.1033 18.2537 50.3025L15.9373 51.6072C15.9568 51.7439 15.9685 51.8924 15.9685 52.0291C15.9685 52.8611 15.6326 53.6189 15.0857 54.1775C14.5389 54.7361 13.781 55.0603 12.9373 55.0603C12.0936 55.0603 11.3475 54.7244 10.7889 54.1775C10.242 53.6306 9.90612 52.8728 9.90612 52.0291C9.90612 51.1854 10.2421 50.4393 10.7889 49.8807C11.3358 49.3338 12.0936 48.9979 12.9373 48.9979C13.6639 48.9979 14.3279 49.2518 14.8514 49.6815L16.6092 48.6932V44.9471H15.535C14.578 44.9471 13.703 44.5565 13.0702 43.9276C12.4374 43.2948 12.0507 42.4237 12.0507 41.4628V40.3886H8.30463L7.31635 42.1464C7.73823 42.6737 7.99994 43.3378 7.99994 44.0605C7.99994 44.8925 7.664 45.6503 7.11713 46.2089C6.57025 46.7558 5.81243 47.0917 4.96873 47.0917C4.12503 47.0917 3.37893 46.7558 2.82033 46.2089V46.2206ZM4.39063 12.3146C4.53907 12.1662 4.73829 12.0724 4.96094 12.0724C5.18359 12.0724 5.39063 12.1662 5.53125 12.3146C5.67969 12.463 5.76172 12.6623 5.76172 12.8849C5.76172 13.1076 5.66797 13.3068 5.53125 13.4552C5.38281 13.6037 5.18359 13.6974 4.96094 13.6974C4.73829 13.6974 4.53906 13.6037 4.39063 13.4552C4.24219 13.3068 4.14844 13.1076 4.14844 12.8849C4.14844 12.6623 4.24219 12.4552 4.39063 12.3146ZM2.58203 27.6076C2.80469 27.3849 3.11719 27.2404 3.45703 27.2404C3.79297 27.2404 4.10937 27.3771 4.33203 27.6076C4.55469 27.8303 4.69141 28.1428 4.69141 28.4826C4.69141 28.8185 4.55469 29.1349 4.33203 29.3576C4.10937 29.5803 3.79687 29.717 3.45703 29.717C3.12109 29.717 2.80469 29.5803 2.58203 29.3576C2.35937 29.1349 2.22265 28.8224 2.22265 28.4826C2.22265 28.1467 2.35937 27.8303 2.58203 27.6076ZM44.129 52.8616C43.9064 52.8616 43.7072 52.7678 43.5587 52.6194C43.4103 52.471 43.3165 52.2717 43.3165 52.0491C43.3165 51.8264 43.4103 51.6272 43.5587 51.4788C43.7072 51.3303 43.9064 51.2366 44.129 51.2366C44.3517 51.2366 44.5509 51.3303 44.6993 51.4788C44.8478 51.6272 44.9415 51.8264 44.9415 52.0491C44.9415 52.2717 44.8478 52.471 44.6993 52.6194C44.5509 52.7678 44.3517 52.8616 44.129 52.8616ZM12.359 52.6194C12.2106 52.471 12.1286 52.2717 12.1286 52.0491C12.1286 51.8264 12.2223 51.6272 12.359 51.4788C12.4958 51.3303 12.7067 51.2366 12.9293 51.2366C13.152 51.2366 13.3512 51.3303 13.4996 51.4788C13.6481 51.6272 13.7301 51.8264 13.7301 52.0491C13.7301 52.2717 13.6364 52.471 13.4996 52.6194C13.3512 52.7678 13.152 52.8616 12.9293 52.8616C12.7067 52.8616 12.5075 52.7678 12.359 52.6194ZM27.652 54.428C27.4294 54.2053 27.2927 53.8928 27.2927 53.553C27.2927 53.2171 27.4294 52.9007 27.652 52.678C27.8747 52.4553 28.1872 52.3108 28.527 52.3108C28.863 52.3108 29.1794 52.4475 29.402 52.678C29.6247 52.9007 29.7614 53.2132 29.7614 53.553C29.7614 53.8889 29.6247 54.2053 29.402 54.428C29.1794 54.6507 28.8669 54.7874 28.527 54.7874C28.1911 54.7874 27.8747 54.6507 27.652 54.428ZM52.906 12.881C52.906 13.1037 52.8123 13.3029 52.6756 13.4513C52.5271 13.5998 52.3279 13.6935 52.1052 13.6935C51.8826 13.6935 51.6834 13.5998 51.5349 13.4513C51.3865 13.3029 51.2927 13.1037 51.2927 12.881C51.2927 12.6583 51.3865 12.4513 51.5349 12.3107C51.6834 12.1623 51.8826 12.0685 52.1052 12.0685C52.3279 12.0685 52.5349 12.1623 52.6756 12.3107C52.824 12.4591 52.906 12.6584 52.906 12.881ZM52.6756 44.651C52.5271 44.7994 52.3279 44.8932 52.1052 44.8932C51.8826 44.8932 51.6834 44.7994 51.5349 44.651C51.3865 44.5026 51.2927 44.3033 51.2927 44.0807C51.2927 43.858 51.3865 43.6588 51.5349 43.5104C51.6834 43.3619 51.8826 43.2682 52.1052 43.2682C52.3279 43.2682 52.5349 43.3619 52.6756 43.5104C52.824 43.6588 52.906 43.858 52.906 44.0807C52.906 44.3033 52.8123 44.5104 52.6756 44.651ZM54.4842 29.358C54.2615 29.5807 53.949 29.7174 53.6092 29.7174C53.2732 29.7174 52.9568 29.5807 52.7342 29.358C52.5115 29.1353 52.3748 28.8228 52.3748 28.483C52.3748 28.1471 52.5115 27.8307 52.7342 27.608C52.9568 27.3853 53.2693 27.2408 53.6092 27.2408C53.9451 27.2408 54.2615 27.3775 54.4842 27.608C54.7068 27.8385 54.8435 28.1432 54.8435 28.483C54.8435 28.8189 54.7068 29.1353 54.4842 29.358ZM12.9372 4.104C13.1598 4.104 13.359 4.19775 13.5075 4.34619C13.6559 4.49463 13.7379 4.69385 13.7379 4.9165C13.7379 5.13915 13.6442 5.33838 13.5075 5.48681C13.359 5.63525 13.1598 5.729 12.9372 5.729C12.7145 5.729 12.5153 5.63525 12.3669 5.48681C12.2184 5.33837 12.1364 5.13915 12.1364 4.9165C12.1364 4.69385 12.2301 4.49462 12.3669 4.34619C12.5153 4.19775 12.7145 4.104 12.9372 4.104ZM44.7072 4.34619C44.8556 4.49463 44.9493 4.69385 44.9493 4.9165C44.9493 5.13915 44.8556 5.33838 44.7072 5.48681C44.5587 5.63525 44.3595 5.729 44.1368 5.729C43.9142 5.729 43.715 5.63525 43.5665 5.48681C43.4181 5.33837 43.3243 5.13915 43.3243 4.9165C43.3243 4.69385 43.4181 4.49462 43.5665 4.34619C43.715 4.19775 43.9142 4.104 44.1368 4.104C44.3595 4.104 44.5587 4.19775 44.7072 4.34619ZM29.4142 2.53759C29.6368 2.76025 29.7735 3.07275 29.7735 3.41259C29.7735 3.74853 29.6368 4.06493 29.4142 4.28759C29.1915 4.51025 28.879 4.64696 28.5392 4.64696C28.2032 4.64696 27.8868 4.51024 27.6642 4.28759C27.4415 4.06493 27.3048 3.75243 27.3048 3.41259C27.3048 3.07665 27.4415 2.76025 27.6642 2.53759C27.8868 2.31493 28.1993 2.1704 28.5392 2.1704C28.8751 2.1704 29.1915 2.30712 29.4142 2.53759ZM15.5312 42.7486C15.1835 42.7486 14.8671 42.6119 14.6483 42.3814C14.4179 42.1509 14.2812 41.8345 14.2812 41.4986V15.4986C14.2812 15.1509 14.4179 14.8345 14.6483 14.6158C14.8788 14.3853 15.1952 14.2486 15.5312 14.2486H41.5432C41.8908 14.2486 42.2072 14.3853 42.426 14.6158C42.6564 14.8463 42.7932 15.1627 42.7932 15.4986V41.4986C42.7932 41.8463 42.6564 42.1627 42.426 42.3814C42.1955 42.6041 41.8791 42.7486 41.5432 42.7486H15.5312Z" fill="#5AE3EA"/>
</svg>
